<?xml version="1.0" standalone="no"?>
<!DOCTYPE svg PUBLIC "-//W3C//DTD SVG 20010904//EN"
 "http://www.w3.org/TR/2001/REC-SVG-20010904/DTD/svg10.dtd">
<svg version="1.0" xmlns="http://www.w3.org/2000/svg"
 width="700.000000pt" height="700.000000pt" viewBox="0 0 700.000000 700.000000"
 preserveAspectRatio="xMidYMid meet">
<metadata>
Created by potrace 1.11, written by Peter Selinger 2001-2013
</metadata>
<g transform="translate(0.000000,700.000000) scale(0.100000,-0.100000)"
fill="#000000" stroke="none">
<path d="M3125 6313 c-374 -31 -749 -150 -1050 -331 -68 -41 -229 -156 -261
-187 -97 -91 -149 -145 -182 -189 -333 -444 -455 -599 -544 -690 -26 -27 -48
-52 -48 -56 0 -4 28 -45 63 -91 101 -134 207 -287 207 -298 0 -5 3 -11 8 -13
4 -1 41 -57 81 -122 259 -417 467 -575 1176 -894 110 -49 229 -102 265 -117
619 -259 1149 -496 1170 -523 3 -4 31 -25 63 -46 85 -58 168 -144 202 -212 27
-53 30 -69 30 -149 0 -81 -3 -96 -30 -144 -69 -126 -233 -210 -465 -238 -81
-10 -403 -10 -490 1 -182 21 -393 70 -540 126 -30 12 -68 26 -85 32 -77 28
-291 147 -392 218 -62 43 -121 80 -130 82 -10 2 -18 8 -18 14 0 5 -45 55 -100
110 -116 114 -202 218 -270 324 -27 41 -56 87 -66 101 -10 15 -46 84 -80 154
l-61 127 -35 -49 c-141 -197 -242 -412 -269 -573 -3 -14 -7 -32 -10 -40 -7
-19 -6 -174 1 -223 20 -140 22 -150 63 -277 32 -102 37 -127 37 -220 0 -128
-6 -164 -51 -310 -20 -63 -35 -117 -33 -118 2 -2 -8 -10 -24 -18 -24 -13 -26
-18 -16 -36 14 -26 -7 -102 -25 -90 -21 13 -36 10 -36 -6 -1 -10 -3 -34 -6
-55 -6 -37 -5 -38 15 -27 21 11 21 9 15 -42 -12 -92 -2 -252 15 -263 5 -2 28
8 52 23 73 47 151 87 204 107 28 10 56 23 63 28 6 5 12 6 12 3 0 -4 8 -2 18 3
9 5 33 12 52 15 19 3 46 8 60 11 71 16 241 10 345 -10 42 -9 164 -41 265 -71
382 -114 567 -158 760 -180 30 -3 57 -8 60 -9 3 -2 57 -7 120 -12 204 -15 636
-8 750 12 14 2 45 6 70 9 25 3 56 8 70 11 13 2 42 7 65 10 115 17 412 102 549
157 74 30 297 148 366 193 223 145 429 344 567 547 21 31 89 132 152 225 123
180 222 317 309 426 l54 69 -58 61 c-33 33 -70 72 -84 86 -46 48 -119 141
-125 161 -4 11 -12 20 -18 20 -7 0 -65 76 -129 168 -146 207 -166 232 -297
362 -177 175 -383 318 -635 440 -67 32 -303 136 -526 230 -223 95 -418 178
-435 185 -661 292 -914 434 -990 554 -50 80 -65 204 -32 267 18 35 69 83 117
112 39 23 166 67 219 77 19 3 37 8 41 10 3 2 34 6 69 10 34 4 72 9 84 12 37 8
345 11 395 3 26 -5 85 -13 132 -20 144 -20 487 -110 642 -169 l27 -10 -30 -88
c-39 -111 -52 -221 -37 -301 30 -164 164 -303 353 -368 72 -25 93 -28 210 -28
115 0 139 4 210 28 108 37 186 87 270 171 71 71 148 196 138 224 -3 7 1 17 8
22 25 15 38 109 35 244 -4 145 -22 244 -84 462 -23 78 -44 161 -49 185 -15 79
-7 267 15 368 31 142 51 219 62 241 6 10 9 19 7 19 -2 0 -54 -25 -115 -55 -61
-30 -117 -55 -125 -55 -7 0 -17 -4 -23 -9 -18 -17 -242 -78 -324 -87 -79 -9
-241 -11 -301 -3 -88 12 -178 33 -354 84 -135 40 -358 100 -410 111 -172 36
-353 61 -505 70 -187 10 -252 10 -405 -3z m425 -208 c0 -8 -7 -15 -15 -15 -16
0 -20 12 -8 23 11 12 23 8 23 -8z m790 -277 c0 -10 -6 -18 -13 -18 -18 0 -41
45 -32 60 10 16 45 -17 45 -42z m-1570 -4 c0 -16 -16 -19 -25 -4 -8 13 4 32
16 25 5 -4 9 -13 9 -21z m2590 -834 c0 -5 -7 -10 -15 -10 -8 0 -15 5 -15 10 0
6 7 10 15 10 8 0 15 -4 15 -10z m-3002 -835 c-17 -16 -58 -29 -58 -18 1 24 34
44 58 35 11 -4 11 -7 0 -17z m1322 -330 c14 -17 4 -19 -50 -9 -22 5 -28 9 -18
15 21 14 54 10 68 -6z m158 -2866 c-10 -29 -11 -29 -29 -13 -22 20 -10 44 22
44 16 0 17 -4 7 -31z"/>
</g>
</svg>
